# xmcd
#
# Track frame offsets:
# 150
# 5520
# 24821
# 42379
# 63254
# 82865
# 99888
# 118526
# 139269
# 155114
# 171295
# 192218
# 211003
# 229274
#
# Disc length: 3278 seconds
#
#
# Revision: 1
# Processed by: cddbd v1.5.1PL0 Copyright (c) Steve Scherf et al.
# Submitted via: FreeRIP 2.70 
#
DISCID=ab0ccc0e
DTITLE=K-Ci and Jojo - It's Real
DYEAR=1999
DGENRE=R&B
TTITLE0=Intro
TTITLE1=Fee Fue Fie Fum
TTITLE2=I Wanna Make Love To You
TTITLE3=I Wanna Get To Know You
TTITLE4=Hello Darlin'
TTITLE5=How Long Must I Cry
TTITLE6=Makin' Me Say Goodbye
TTITLE7=Tell Me It's Real
TTITLE8=Life
TTITLE9=Girl
TTITLE10=What Am I Gonna Do
TTITLE11=Here He Comes Again
TTITLE12=Momma's Song
TTITLE13=All My Life
EXTD=
EXTT0=
EXTT1=
EXTT2=
EXTT3=
EXTT4=
EXTT5=
EXTT6=
EXTT7=
EXTT8=
EXTT9=
EXTT10=
EXTT11=
EXTT12=
EXTT13=
PLAYORDER=
